<svg width="62" height="39" viewBox="0 0 62 39" version="1.1" xmlns="http://www.w3.org/2000/svg" xmlns:xlink="http://www.w3.org/1999/xlink">
    <!-- Generator: Sketch 62 (91390) - https://sketch.com -->
    <title>Path1A4BED9C-1E21-4F83-BC10-21A3EDBF6E85</title>
    <desc>Created with Sketch.</desc>
    <defs>
        <linearGradient x1="-30.0272529%" y1="-10.3025142%" x2="84.6911337%" y2="108.167253%" id="linearGradient-1" vector-effect="non-scaling-stroke">
            <stop stop-color="#0A2269" offset="0%" vector-effect="non-scaling-stroke"/>
            <stop stop-color="#023BDB" offset="100%" vector-effect="non-scaling-stroke"/>
            <stop stop-color="#0136D9" offset="100%" vector-effect="non-scaling-stroke"/>
        </linearGradient>
        <linearGradient x1="16.2948089%" y1="32.1524865%" x2="96.7866804%" y2="67.7777828%" id="linearGradient-2" vector-effect="non-scaling-stroke">
            <stop stop-color="#009EE3" offset="0%" vector-effect="non-scaling-stroke"/>
            <stop stop-color="#2246B6" offset="100%" vector-effect="non-scaling-stroke"/>
        </linearGradient>
    </defs>
    <g id="Page-1" stroke="none" stroke-width="1" fill="none" fill-rule="evenodd">
        <g id="Web-Development" transform="translate(-362.000000, -3165.000000)" fill="url(#linearGradient-2)">
            <g id="Group-31-Copy-2" transform="translate(210.000000, 3165.000000)">
                <g id="upload-(1)" transform="translate(152.000000, 0.000000)">
                    <path d="M62,28.9177032 C62,23.3741657 57.7073211,18.8773134 52.3971711,18.8373786 C52.143631,12.5543083 47.1783141,7.54076915 41.0876771,7.54076915 C39.1648407,7.54076915 37.3545837,8.04217233 35.7685394,8.92369539 C33.4308625,3.65526389 28.3160706,0 22.3815308,0 C14.2393952,0 7.63883969,6.87962688 7.63883969,15.3660119 C7.63883969,16.610892 7.78169254,17.8207677 8.04989618,18.9798619 C3.48097232,19.7849667 0,23.9263502 0,28.9177032 C0,34.485892 4.33099365,39 9.67330927,39 L52.3271637,39 C57.6690063,38.999507 62,34.485892 62,28.9177032 L62,28.9177032 Z" id="Path" vector-effect="non-scaling-stroke"/>
                </g>
            </g>
        </g>
    </g>
</svg>