<svg width="51" height="51" viewBox="0 0 51 51" version="1.1" xmlns="http://www.w3.org/2000/svg" xmlns:xlink="http://www.w3.org/1999/xlink">
    <!-- Generator: Sketch 62 (91390) - https://sketch.com -->
    <title>Shape12D30E0B-3CED-47A6-83A9-DBA5EE069812</title>
    <desc>Created with Sketch.</desc>
    <defs>
        <linearGradient x1="16.2948089%" y1="4.89425254%" x2="96.7866804%" y2="94.929518%" id="linearGradient-1" vector-effect="non-scaling-stroke">
            <stop stop-color="#009EE3" offset="0%" vector-effect="non-scaling-stroke"/>
            <stop stop-color="#2246B6" offset="100%" vector-effect="non-scaling-stroke"/>
        </linearGradient>
    </defs>
    <g id="Page-1" stroke="none" stroke-width="1" fill="none" fill-rule="evenodd">
        <g id="Web-Development" transform="translate(-1181.000000, -3165.000000)" fill="url(#linearGradient-1)">
            <g id="Group-31-Copy" transform="translate(1023.000000, 3165.000000)">
                <g id="gear" transform="translate(158.000000, 0.000000)">
                    <g id="Group-45">
                        <path d="M51,30.6594543 L51,20.3405457 L46.356102,18.9907608 C45.9638901,17.7370834 45.4592285,16.5211487 44.8479538,15.3589096 L47.1794357,11.116951 L39.883049,3.82056429 L35.6410904,6.15204623 C34.4788513,5.54077148 33.2629166,5.03610995 32.0092392,4.64389804 L30.6594543,0 L20.3405457,0 L18.9907608,4.64389804 C17.7370834,5.03610995 16.5211487,5.54077148 15.3589096,6.15204623 L11.116951,3.82056429 L3.82056429,11.116951 L6.15165705,15.3589096 C5.54077148,16.5211487 5.03610995,17.7370834 4.64389804,18.9907608 L0,20.3405457 L0,30.6594543 L4.64389804,32.0092392 C5.03610995,33.2629166 5.54077148,34.4788513 6.15204623,35.6410904 L3.82056429,39.883049 L11.116951,47.1794357 L15.3589096,44.8483429 C16.5211487,45.4592285 17.7370834,45.9638901 18.9907608,46.356102 L20.3405457,51 L30.6594543,51 L32.0092392,46.356102 C33.2629166,45.9638901 34.4788513,45.4592285 35.6410904,44.8479538 L39.883049,47.1794357 L47.1794357,39.883049 L44.8483429,35.6410904 C45.4592285,34.4788513 45.9638901,33.2629166 46.356102,32.0092392 L51,30.6594543 Z" id="Shape" vector-effect="non-scaling-stroke"/>
                    </g>
                </g>
            </g>
        </g>
    </g>
</svg>