<?xml version="1.0" encoding="UTF-8"?>
<svg width="188px" height="67px" viewBox="0 0 188 67" version="1.1" xmlns="http://www.w3.org/2000/svg" xmlns:xlink="http://www.w3.org/1999/xlink">
    <!-- Generator: Sketch 54.1 (76490) - https://sketchapp.com -->
    <title>Scopic Logo blue</title>
    <desc>Created with Sketch.</desc>
    <g id="Scopic-Logo-blue" stroke="none" stroke-width="1" fill="none" fill-rule="evenodd">
        <g id="Logo_Horizontal-version_normal" fill="#007AFF" fill-rule="nonzero">
            <g id="Group" opacity="0.2">
                <ellipse id="Oval" transform="translate(25.905486, 22.025254) rotate(-25.537492) translate(-25.905486, -22.025254) " cx="25.9054862" cy="22.0252537" rx="3.28912644" ry="3.29113338"></ellipse>
                <ellipse id="Oval" transform="translate(28.669045, 6.326915) rotate(-25.537492) translate(-28.669045, -6.326915) " cx="28.6690454" cy="6.32691487" rx="3.28912644" ry="3.29113338"></ellipse>
                <ellipse id="Oval" transform="translate(49.264995, 10.833472) rotate(-25.537492) translate(-49.264995, -10.833472) " cx="49.2649955" cy="10.8334718" rx="3.28912644" ry="3.29113338"></ellipse>
                <ellipse id="Oval" transform="translate(45.197941, 25.721463) rotate(-25.537492) translate(-45.197941, -25.721463) " cx="45.1979414" cy="25.7214631" rx="3.28912644" ry="3.29113338"></ellipse>
                <ellipse id="Oval" transform="translate(60.380047, 28.457423) rotate(-25.537492) translate(-60.380047, -28.457423) " cx="60.3800473" cy="28.4574227" rx="3.28912644" ry="3.29113338"></ellipse>
                <ellipse id="Oval" transform="translate(56.253258, 48.880523) rotate(-25.537492) translate(-56.253258, -48.880523) " cx="56.2532581" cy="48.8805229" rx="3.28912644" ry="3.29113338"></ellipse>
                <ellipse id="Oval" transform="translate(38.476118, 60.096719) rotate(-25.537492) translate(-38.476118, -60.096719) " cx="38.4761178" cy="60.0967191" rx="3.28912644" ry="3.29113338"></ellipse>
                <ellipse id="Oval" transform="translate(18.071256, 55.867172) rotate(-25.537492) translate(-18.071256, -55.867172) " cx="18.0712555" cy="55.8671722" rx="3.28912644" ry="3.29113338"></ellipse>
                <ellipse id="Oval" transform="translate(7.020118, 38.426324) rotate(-25.537492) translate(-7.020118, -38.426324) " cx="7.02011789" cy="38.4263236" rx="3.28912644" ry="3.29113338"></ellipse>
                <ellipse id="Oval" transform="translate(11.145030, 18.151104) rotate(-25.537492) translate(-11.145030, -18.151104) " cx="11.14503" cy="18.151104" rx="3.28912644" ry="3.29113338"></ellipse>
                <ellipse id="Oval" transform="translate(17.748783, 22.252628) rotate(-25.537492) translate(-17.748783, -22.252628) " cx="17.7487832" cy="22.2526284" rx="2.41590703" ry="2.41738116"></ellipse>
                <ellipse id="Oval" transform="translate(13.417519, 10.340937) rotate(-25.537492) translate(-13.417519, -10.340937) " cx="13.4175193" cy="10.3409373" rx="2.06661927" ry="2.06788027"></ellipse>
                <ellipse id="Oval" transform="translate(10.708230, 53.773297) rotate(-25.537492) translate(-10.708230, -53.773297) " cx="10.7082297" cy="53.773297" rx="2.06661927" ry="2.06788027"></ellipse>
                <ellipse id="Oval" transform="translate(35.332426, 2.938763) rotate(-25.537492) translate(-35.332426, -2.938763) " cx="35.3324261" cy="2.93876274" rx="2.06661927" ry="2.06788027"></ellipse>
                <ellipse id="Oval" transform="translate(2.858624, 31.696174) rotate(-25.537492) translate(-2.858624, -31.696174) " cx="2.8586244" cy="31.6961736" rx="2.06661927" ry="2.06788027"></ellipse>
                <ellipse id="Oval" transform="translate(32.098407, 64.088317) rotate(-25.537492) translate(-32.098407, -64.088317) " cx="32.098407" cy="64.0883169" rx="2.06661927" ry="2.06788027"></ellipse>
                <ellipse id="Oval" transform="translate(56.601762, 12.939905) rotate(-25.537492) translate(-56.601762, -12.939905) " cx="56.6017624" cy="12.9399052" rx="2.06661927" ry="2.06788027"></ellipse>
                <ellipse id="Oval" transform="translate(53.603183, 56.507649) rotate(-25.537492) translate(-53.603183, -56.507649) " cx="53.6031828" cy="56.5076485" rx="2.06661927" ry="2.06788027"></ellipse>
                <ellipse id="Oval" transform="translate(64.521332, 35.159136) rotate(-25.537492) translate(-64.521332, -35.159136) " cx="64.5213323" cy="35.1591356" rx="2.06661927" ry="2.06788027"></ellipse>
                <ellipse id="Oval" transform="translate(29.945341, 14.622479) rotate(-25.537492) translate(-29.945341, -14.622479) " cx="29.9453414" cy="14.6224791" rx="2.41590703" ry="2.41738116"></ellipse>
                <ellipse id="Oval" transform="translate(44.931983, 17.543082) rotate(-25.537492) translate(-44.931983, -17.543082) " cx="44.9319825" cy="17.5430819" rx="2.41590703" ry="2.41738116"></ellipse>
                <ellipse id="Oval" transform="translate(52.585675, 29.487251) rotate(-25.537492) translate(-52.585675, -29.487251) " cx="52.585675" cy="29.4872506" rx="2.41590703" ry="2.41738116"></ellipse>
                <ellipse id="Oval" transform="translate(49.912300, 44.303511) rotate(-25.537492) translate(-49.912300, -44.303511) " cx="49.9123004" cy="44.3035111" rx="2.41590703" ry="2.41738116"></ellipse>
                <ellipse id="Oval" transform="translate(37.477710, 52.287549) rotate(-25.537492) translate(-37.477710, -52.287549) " cx="37.4777098" cy="52.2875487" rx="2.41590703" ry="2.41738116"></ellipse>
                <ellipse id="Oval" transform="translate(14.603951, 36.998647) rotate(-25.537492) translate(-14.603951, -36.998647) " cx="14.6039506" cy="36.9986468" rx="2.41590703" ry="2.41738116"></ellipse>
                <ellipse id="Oval" transform="translate(22.578640, 49.722171) rotate(-25.537492) translate(-22.578640, -49.722171) " cx="22.5786399" cy="49.7221711" rx="2.41590703" ry="2.41738116"></ellipse>
                <ellipse id="Oval" transform="translate(41.356068, 44.739008) rotate(-25.537492) translate(-41.356068, -44.739008) " cx="41.3560683" cy="44.7390082" rx="3.28912644" ry="3.29113338"></ellipse>
                <ellipse id="Oval" transform="translate(39.228284, 11.131287) rotate(-25.537492) translate(-39.228284, -11.131287) " cx="39.2282837" cy="11.1312868" rx="4.16234585" ry="4.16488561"></ellipse>
                <ellipse id="Oval" transform="translate(53.144218, 20.972526) rotate(-25.537492) translate(-53.144218, -20.972526) " cx="53.1442183" cy="20.9725264" rx="4.16234585" ry="4.16488561"></ellipse>
                <ellipse id="Oval" transform="translate(56.047136, 38.802030) rotate(-25.537492) translate(-56.047136, -38.802030) " cx="56.0471362" cy="38.8020304" rx="4.16234585" ry="4.16488561"></ellipse>
                <ellipse id="Oval" transform="translate(45.338726, 53.140916) rotate(-25.537492) translate(-45.338726, -53.140916) " cx="45.3387261" cy="53.140916" rx="4.16234585" ry="4.16488561"></ellipse>
                <ellipse id="Oval" transform="translate(28.113709, 55.673437) rotate(-25.537492) translate(-28.113709, -55.673437) " cx="28.1137092" cy="55.6734373" rx="4.16234585" ry="4.16488561"></ellipse>
                <ellipse id="Oval" transform="translate(13.941076, 45.273424) rotate(-25.537492) translate(-13.941076, -45.273424) " cx="13.941076" cy="45.2734235" rx="4.16234585" ry="4.16488561"></ellipse>
                <ellipse id="Oval" transform="translate(11.319122, 28.138104) rotate(-25.537492) translate(-11.319122, -28.138104) " cx="11.319122" cy="28.1381036" rx="4.16234585" ry="4.16488561"></ellipse>
                <ellipse id="Oval" transform="translate(21.732908, 13.281238) rotate(-25.537492) translate(-21.732908, -13.281238) " cx="21.7329077" cy="13.2812381" rx="4.16234585" ry="4.16488561"></ellipse>
                <ellipse id="Oval" transform="translate(21.830560, 40.554564) rotate(-25.537492) translate(-21.830560, -40.554564) " cx="21.83056" cy="40.554564" rx="3.28912644" ry="3.29113338"></ellipse>
                <ellipse id="Oval" transform="translate(36.114238, 19.932066) rotate(-25.537492) translate(-36.114238, -19.932066) " cx="36.1142383" cy="19.932066" rx="3.28912644" ry="3.29113338"></ellipse>
                <ellipse id="Oval" transform="translate(19.791508, 30.557526) rotate(-25.537492) translate(-19.791508, -30.557526) " cx="19.7915079" cy="30.557526" rx="3.28912644" ry="3.29113338"></ellipse>
                <ellipse id="Oval" transform="translate(31.282583, 46.990520) rotate(-25.537492) translate(-31.282583, -46.990520) " cx="31.282583" cy="46.9905199" rx="3.28912644" ry="3.29113338"></ellipse>
                <ellipse id="Oval" transform="translate(47.518455, 36.155676) rotate(-25.537492) translate(-47.518455, -36.155676) " cx="47.5184551" cy="36.1556761" rx="3.28912644" ry="3.29113338"></ellipse>
            </g>
            <g id="Group" transform="translate(6.693498, 5.534783)">
                <ellipse id="Oval" cx="25.3188854" cy="15.4682609" rx="2.82291022" ry="2.82565217"></ellipse>
                <ellipse id="Oval" cx="33.2346749" cy="4.36956522" rx="2.82291022" ry="2.82565217"></ellipse>
                <ellipse id="Oval" cx="47.4656347" cy="15.4682609" rx="2.82291022" ry="2.82565217"></ellipse>
                <ellipse id="Oval" cx="38.8513932" cy="25.4308696" rx="2.82291022" ry="2.82565217"></ellipse>
                <ellipse id="Oval" cx="49.5318885" cy="33.1504348" rx="2.82291022" ry="2.82565217"></ellipse>
                <ellipse id="Oval" cx="38.8513932" cy="47.3952174" rx="2.82291022" ry="2.82565217"></ellipse>
                <ellipse id="Oval" cx="21.0117647" cy="49.4634783" rx="2.82291022" ry="2.82565217"></ellipse>
                <ellipse id="Oval" cx="6.80990712" cy="38.6852174" rx="2.82291022" ry="2.82565217"></ellipse>
                <ellipse id="Oval" cx="4.71455108" cy="21.1486957" rx="2.82291022" ry="2.82565217"></ellipse>
                <ellipse id="Oval" cx="15.3659443" cy="7.02043478" rx="2.82291022" ry="2.82565217"></ellipse>
                <ellipse id="Oval" cx="18.9455108" cy="12.6426087" rx="2.06625387" ry="2.06826087"></ellipse>
                <ellipse id="Oval" cx="19.9931889" cy="1.83521739" rx="1.7752322" ry="1.77695652"></ellipse>
                <ellipse id="Oval" cx="1.89164087" cy="34.3447826" rx="1.7752322" ry="1.77695652"></ellipse>
                <ellipse id="Oval" cx="39.6080495" cy="4.19478261" rx="1.7752322" ry="1.77695652"></ellipse>
                <ellipse id="Oval" cx="3.9869969" cy="14.4195652" rx="1.7752322" ry="1.77695652"></ellipse>
                <ellipse id="Oval" cx="14.6092879" cy="50.2208696" rx="1.7752322" ry="1.77695652"></ellipse>
                <ellipse id="Oval" cx="52.3547988" cy="19.7795652" rx="1.7752322" ry="1.77695652"></ellipse>
                <ellipse id="Oval" cx="33.9913313" cy="52.2891304" rx="1.7752322" ry="1.77695652"></ellipse>
                <ellipse id="Oval" cx="50.2885449" cy="39.8504348" rx="1.7752322" ry="1.77695652"></ellipse>
                <ellipse id="Oval" cx="31.1684211" cy="11.2443478" rx="2.06625387" ry="2.06826087"></ellipse>
                <ellipse id="Oval" cx="41.6743034" cy="19.0221739" rx="2.06625387" ry="2.06826087"></ellipse>
                <ellipse id="Oval" cx="43.1876161" cy="31.0821739" rx="2.06625387" ry="2.06826087"></ellipse>
                <ellipse id="Oval" cx="35.6210526" cy="41.5108696" rx="2.06625387" ry="2.06826087"></ellipse>
                <ellipse id="Oval" cx="23.1071207" cy="43.083913" rx="2.06625387" ry="2.06826087"></ellipse>
                <ellipse id="Oval" cx="11.0879257" cy="22.8673913" rx="2.06625387" ry="2.06826087"></ellipse>
                <ellipse id="Oval" cx="12.5430341" cy="35.6265217" rx="2.06625387" ry="2.06826087"></ellipse>
                <ellipse id="Oval" cx="28.8693498" cy="38.6852174" rx="2.82291022" ry="2.82565217"></ellipse>
                <ellipse id="Oval" cx="39.6080495" cy="11.9726087" rx="3.5504644" ry="3.55391304"></ellipse>
                <ellipse id="Oval" cx="46.7380805" cy="24.7026087" rx="3.5504644" ry="3.55391304"></ellipse>
                <ellipse id="Oval" cx="42.4018576" cy="39.53" rx="3.5504644" ry="3.55391304"></ellipse>
                <ellipse id="Oval" cx="28.8693498" cy="46.6669565" rx="3.5504644" ry="3.55391304"></ellipse>
                <ellipse id="Oval" cx="14.6383901" cy="42.2391304" rx="3.5504644" ry="3.55391304"></ellipse>
                <ellipse id="Oval" cx="7.5374613" cy="28.9847826" rx="3.5504644" ry="3.55391304"></ellipse>
                <ellipse id="Oval" cx="11.8154799" cy="14.7982609" rx="3.5504644" ry="3.55391304"></ellipse>
                <ellipse id="Oval" cx="25.3188854" cy="7.19521739" rx="3.5504644" ry="3.55391304"></ellipse>
                <ellipse id="Oval" cx="15.3659443" cy="28.2565217" rx="2.82291022" ry="2.82565217"></ellipse>
                <ellipse id="Oval" cx="33.9913313" cy="17.623913" rx="2.82291022" ry="2.82565217"></ellipse>
                <ellipse id="Oval" cx="17.4613003" cy="19.7795652" rx="2.82291022" ry="2.82565217"></ellipse>
                <ellipse id="Oval" cx="20.2842105" cy="36.7334783" rx="2.82291022" ry="2.82565217"></ellipse>
                <ellipse id="Oval" cx="36.8142415" cy="34.3447826" rx="2.82291022" ry="2.82565217"></ellipse>
            </g>
            <g id="Group" transform="translate(79.448916, 19.808696)">
                <path d="M0,20.4786957 L2.56099071,18.0026087 C3.8996904,20.4786957 6.16965944,21.7021739 8.55603715,21.7021739 C11.0588235,21.7021739 12.6885449,20.2165217 12.6885449,18.3813043 C12.6885449,17.1578261 11.9027864,16.1091304 10.3021672,15.2643478 C9.89473684,15.0604348 9.07987616,14.7108696 7.82848297,14.1865217 C6.60619195,13.6330435 5.6749226,13.1669565 5.03467492,12.8173913 C2.56099071,11.3317391 1.36780186,9.38 1.36780186,6.93304348 C1.36780186,5.03956522 2.06625387,3.40826087 3.46315789,2.12652174 C4.86006192,0.844782609 6.72260062,0.203913043 8.96346749,0.203913043 C12.019195,0.203913043 14.4637771,1.34 16.355418,3.67043478 L14.0272446,6.26304348 C12.6885449,4.6026087 11.0006192,3.75782609 9.02167183,3.75782609 C6.92631579,3.75782609 5.4130031,4.89391304 5.4130031,6.7 C5.4130031,7.83608696 6.11145511,8.82652174 7.4501548,9.58391304 C7.88668731,9.81695652 8.75975232,10.2830435 10.1857585,10.923913 C11.5826625,11.5356522 12.5721362,12.0308696 13.1832817,12.3804348 C15.6569659,13.7204348 16.879257,15.6721739 16.879257,18.1482609 C16.879257,20.2165217 16.0934985,21.9352174 14.5510836,23.2752174 C13.0086687,24.586087 11.0006192,25.256087 8.58513932,25.256087 C5.03467492,25.3143478 1.74613003,23.5956522 0,20.4786957 Z" id="Path"></path>
                <path d="M22.0885449,22.7217391 C20.3424149,20.973913 19.4693498,18.7891304 19.4693498,16.08 C19.4693498,13.3417391 20.3424149,11.1569565 22.1176471,9.40913043 C23.8928793,7.66130435 26.1628483,6.7873913 28.9275542,6.7873913 C32.4780186,6.7873913 35.6501548,8.59347826 37.0470588,11.5065217 L34.0495356,13.1669565 C32.9727554,11.3026087 31.0229102,10.0791304 28.9275542,10.0791304 C27.2687307,10.0791304 25.8427245,10.6326087 24.7368421,11.7978261 C23.6309598,12.933913 23.0780186,14.3613043 23.0780186,16.0508696 C23.0780186,17.7113043 23.6309598,19.1095652 24.7077399,20.2456522 C25.7845201,21.3817391 27.1814241,21.9643478 28.8111455,21.9643478 C30.9065015,21.9643478 33.0309598,20.6826087 33.9622291,18.9347826 L36.9597523,20.6826087 C35.504644,23.45 32.3325077,25.2852174 28.7820433,25.2852174 C26.0755418,25.3143478 23.8055728,24.4404348 22.0885449,22.7217391 Z" id="Path"></path>
                <path d="M41.7616099,9.4673913 C43.5368421,7.66130435 45.7486068,6.72913043 48.4842105,6.72913043 C51.2198142,6.72913043 53.4315789,7.66130435 55.177709,9.4673913 C56.9529412,11.2734783 57.8260062,13.4291304 57.8260062,16.0217391 C57.8260062,18.6434783 56.9529412,20.8573913 55.177709,22.6634783 C53.4315789,24.4695652 51.2198142,25.3434783 48.4842105,25.3434783 C45.7486068,25.3434783 43.5368421,24.4695652 41.7616099,22.6634783 C40.0154799,20.8573913 39.1424149,18.6726087 39.1424149,16.0217391 C39.1424149,13.4582609 40.0154799,11.2734783 41.7616099,9.4673913 Z M52.5003096,11.8852174 C51.4235294,10.6908696 50.0848297,10.1082609 48.4551084,10.1082609 C46.8544892,10.1082609 45.5157895,10.6908696 44.380805,11.8852174 C43.3040248,13.0213043 42.7510836,14.4486957 42.7510836,16.0508696 C42.7510836,17.6821739 43.3040248,19.1095652 44.380805,20.2456522 C45.4866873,21.3817391 46.8544892,21.9934783 48.4551084,21.9934783 C50.0557276,21.9934783 51.3944272,21.4108696 52.5003096,20.2456522 C53.606192,19.1095652 54.1591331,17.6821739 54.1591331,16.0508696 C54.1882353,14.4486957 53.6352941,13.0213043 52.5003096,11.8852174 Z" id="Shape"></path>
                <path d="M77.3535604,9.4673913 C79.0123839,11.2734783 79.8854489,13.4582609 79.8854489,16.08 C79.8854489,18.7017391 79.0414861,20.8282609 77.3535604,22.6343478 C75.6947368,24.4404348 73.5702786,25.3143478 71.0674923,25.3143478 C68.593808,25.3143478 66.5857585,24.3530435 65.0433437,22.4304348 L65.0433437,32.1891304 L61.4346749,32.1891304 L61.4346749,7.19521739 L65.0433437,7.19521739 L65.0433437,9.75869565 C66.6439628,7.74869565 68.6811146,6.75826087 71.0965944,6.75826087 C73.628483,6.7873913 75.6947368,7.66130435 77.3535604,9.4673913 Z M74.676161,11.856087 C73.628483,10.72 72.2606811,10.1082609 70.5727554,10.1082609 C68.8848297,10.1082609 67.5170279,10.6908696 66.4693498,11.856087 C65.450774,12.9921739 64.926935,14.3904348 64.926935,16.0508696 C64.926935,17.7113043 65.450774,19.1678261 66.4693498,20.303913 C67.5170279,21.44 68.8848297,22.0226087 70.5727554,22.0226087 C72.2606811,22.0226087 73.628483,21.4691304 74.676161,20.303913 C75.723839,19.1678261 76.247678,17.7113043 76.247678,16.0508696 C76.247678,14.3613043 75.723839,12.9921739 74.676161,11.856087 Z" id="Shape"></path>
                <path d="M82.9120743,2.41782609 C82.9120743,1.07782609 83.9888545,0.0291304348 85.4148607,0.0291304348 C86.7535604,0.0291304348 87.8012384,1.07782609 87.8012384,2.41782609 C87.8012384,3.81608696 86.7535604,4.89391304 85.4148607,4.89391304 C83.9888545,4.89391304 82.9120743,3.84521739 82.9120743,2.41782609 Z M87.1318885,24.9065217 L83.5232198,24.9065217 L83.5232198,7.22434783 L87.1318885,7.22434783 L87.1318885,24.9065217 Z" id="Shape"></path>
                <path d="M93.3597523,22.7217391 C91.6136223,20.973913 90.7405573,18.7891304 90.7405573,16.08 C90.7405573,13.3417391 91.6136223,11.1569565 93.3888545,9.40913043 C95.1640867,7.66130435 97.4340557,6.7873913 100.198762,6.7873913 C103.749226,6.7873913 106.921362,8.59347826 108.318266,11.5065217 L105.320743,13.1669565 C104.243963,11.3026087 102.294118,10.0791304 100.198762,10.0791304 C98.5399381,10.0791304 97.1139319,10.6326087 96.0080495,11.7978261 C94.9021672,12.933913 94.349226,14.3613043 94.349226,16.0508696 C94.349226,17.7113043 94.9021672,19.1095652 95.9789474,20.2456522 C97.0557276,21.3817391 98.4526316,21.9643478 100.082353,21.9643478 C102.177709,21.9643478 104.302167,20.6826087 105.233437,18.9347826 L108.23096,20.6826087 C106.775851,23.45 103.603715,25.2852174 100.053251,25.2852174 C97.3758514,25.3143478 95.1058824,24.4404348 93.3597523,22.7217391 Z" id="Path"></path>
            </g>
        </g>
    </g>
</svg>